HIERARCHY
ROOT Hips
{
	OFFSET 0.000000 0.000000 0.000000
	CHANNELS 6 Xposition Yposition Zposition Yrotation Xrotation Zrotation
	JOINT Chest
	{
		OFFSET 0.000000 -0.009282 11.569106
		CHANNELS 6 Xposition Yposition Zposition Yrotation Xrotation Zrotation
		JOINT Chest2
		{
			OFFSET -0.000000 0.016863 9.269641
			CHANNELS 6 Xposition Yposition Zposition Yrotation Xrotation Zrotation
			JOINT Chest3
			{
				OFFSET -0.000000 0.000000 8.374491
				CHANNELS 6 Xposition Yposition Zposition Yrotation Xrotation Zrotation
				JOINT Chest4
				{
					OFFSET -0.000000 0.000000 8.374493
					CHANNELS 6 Xposition Yposition Zposition Yrotation Xrotation Zrotation
					JOINT Neck
					{
						OFFSET -0.000000 0.000001 12.152554
						CHANNELS 6 Xposition Yposition Zposition Yrotation Xrotation Zrotation
						JOINT Head
						{
							OFFSET -0.000000 0.040100 7.802319
							CHANNELS 6 Xposition Yposition Zposition Yrotation Xrotation Zrotation
							End Site
							{
								OFFSET -0.000000 0.020946 14.853096
							}
						}
					}
					JOINT RightCollar
					{
						OFFSET 2.894404 0.000001 6.791374
						CHANNELS 6 Xposition Yposition Zposition Yrotation Xrotation Zrotation
						JOINT RightShoulder
						{
							OFFSET 13.574684 0.000001 0.000000
							CHANNELS 6 Xposition Yposition Zposition Yrotation Xrotation Zrotation
							JOINT RightElbow
							{
								OFFSET 23.923903 0.000002 0.000000
								CHANNELS 6 Xposition Yposition Zposition Yrotation Xrotation Zrotation
								JOINT RightWrist
								{
									OFFSET 19.846718 0.012767 0.000000
									CHANNELS 6 Xposition Yposition Zposition Yrotation Xrotation Zrotation
									End Site
									{
										OFFSET 14.973145 0.000001 0.000000
									}
								}
							}
						}
					}
					JOINT LeftCollar
					{
						OFFSET -2.894404 0.000000 6.791374
						CHANNELS 6 Xposition Yposition Zposition Yrotation Xrotation Zrotation
						JOINT LeftShoulder
						{
							OFFSET -13.574684 -0.000001 0.000000
							CHANNELS 6 Xposition Yposition Zposition Yrotation Xrotation Zrotation
							JOINT LeftElbow
							{
								OFFSET -23.923903 -0.000002 0.000000
								CHANNELS 6 Xposition Yposition Zposition Yrotation Xrotation Zrotation
								JOINT LeftWrist
								{
									OFFSET -19.846718 0.012763 0.000000
									CHANNELS 6 Xposition Yposition Zposition Yrotation Xrotation Zrotation
									End Site
									{
										OFFSET -14.973145 -0.000001 0.000000
									}
								}
							}
						}
					}
				}
			}
		}
	}
	JOINT RightHip
	{
		OFFSET 9.469263 0.004643 0.045487
		CHANNELS 6 Xposition Yposition Zposition Yrotation Xrotation Zrotation
		JOINT RightKnee
		{
			OFFSET 0.000000 0.002666 -40.478676
			CHANNELS 6 Xposition Yposition Zposition Yrotation Xrotation Zrotation
			JOINT RightAnkle
			{
				OFFSET 0.000000 0.049110 -35.224068
				CHANNELS 6 Xposition Yposition Zposition Yrotation Xrotation Zrotation
				JOINT RightToe
				{
					OFFSET -0.000001 12.539530 -6.151390
					CHANNELS 6 Xposition Yposition Zposition Yrotation Xrotation Zrotation
					End Site
					{
						OFFSET -0.000001 5.044996 -1.291870
					}
				}
			}
		}
	}
	JOINT LeftHip
	{
		OFFSET -9.469263 0.004641 0.045487
		CHANNELS 6 Xposition Yposition Zposition Yrotation Xrotation Zrotation
		JOINT LeftKnee
		{
			OFFSET 0.000000 0.002666 -40.478676
			CHANNELS 6 Xposition Yposition Zposition Yrotation Xrotation Zrotation
			JOINT LeftAnkle
			{
				OFFSET 0.000000 0.049110 -35.224068
				CHANNELS 6 Xposition Yposition Zposition Yrotation Xrotation Zrotation
				JOINT LeftToe
				{
					OFFSET -0.000001 12.539530 -6.151390
					CHANNELS 6 Xposition Yposition Zposition Yrotation Xrotation Zrotation
					End Site
					{
						OFFSET -0.000001 5.044996 -1.291870
					}
				}
			}
		}
	}
}
MOTION
Frames: 4
Frame Time: 0.016667
6.474005 3.580315 83.007660 -8.900184 -2.678810 -103.597174 0.000000 -0.009283 11.569104 -0.228610 -4.479542 1.305355 -0.000000 0.016862 9.269655 -0.071222 -2.026394 0.686863 0.000000 0.000000 8.374490 -0.071222 -2.026393 0.686864 0.000000 0.000000 8.374501 -0.051133 -1.519877 0.514857 -0.000000 0.000003 12.152531 5.313391 -17.377840 -9.944401 -0.000001 0.040104 7.802310 6.408693 3.967347 -16.539419 2.894403 0.000001 6.791367 7.208215 0.018309 -10.510310 13.574686 0.000000 -0.000006 63.277803 10.538837 42.240164 23.923885 0.000003 0.000000 40.309434 -54.815389 84.730218 19.846710 0.012763 -0.000003 -24.598516 18.397958 19.878957 -2.894405 0.000000 6.791366 -7.178153 0.571262 -5.822829 -13.574687 -0.000001 -0.000006 -53.310825 -3.172922 -48.708278 -23.923891 -0.000014 0.000004 -33.179423 -30.940129 -73.499666 -19.846712 0.012764 -0.000007 23.217664 22.936607 -32.612644 9.469264 0.004644 0.045493 1.851885 -13.627429 -11.186586 0.000104 0.002658 -40.478489 -3.659644 3.708223 -2.470511 0.000030 0.049106 -35.224003 4.575069 1.349714 -0.564789 -0.000001 12.539527 -6.151396 -0.027332 -0.057275 -0.013207 -9.469263 0.004641 0.045486 1.382333 -13.458324 -22.418064 -0.000877 0.002506 -40.478462 -1.408081 5.510064 19.081914 -0.000970 0.048928 -35.224033 1.304640 0.477653 21.317311 0.000001 12.539534 -6.151386 0.031071 0.036182 -0.022576 
6.455043 3.600749 83.009773 -8.854859 -2.697587 -103.644371 0.000001 -0.009283 11.569113 -0.210470 -4.562062 1.325766 -0.000000 0.016863 9.269643 -0.070594 -2.058360 0.688566 -0.000000 -0.000000 8.374491 -0.070594 -2.058359 0.688566 -0.000000 0.000001 8.374502 -0.050620 -1.543851 0.516130 -0.000000 0.000002 12.152566 5.357580 -17.515827 -9.920971 0.000002 0.040099 7.802322 6.510265 3.717038 -16.477915 2.894405 0.000001 6.791376 7.270070 -0.022054 -10.515381 13.574686 0.000002 -0.000004 63.362395 10.607462 42.200068 23.923899 0.000003 -0.000001 38.981973 -54.918085 85.619720 19.846716 0.012760 0.000002 -23.696850 18.337443 20.797699 -2.894404 -0.000000 6.791380 -7.215392 0.522496 -5.809370 -13.574683 -0.000002 0.000005 -53.277436 -3.133526 -48.669824 -23.923908 -0.000005 -0.000002 -32.439765 -31.078529 -73.850246 -19.846710 0.012760 -0.000004 22.858265 22.277777 -33.348457 9.469264 0.004643 0.045488 1.864194 -13.580726 -11.141801 0.000104 0.002658 -40.478497 -3.682951 3.744489 -2.485476 0.000029 0.049108 -35.224010 4.614856 1.293457 -0.530280 0.000001 12.539528 -6.151392 -0.036694 -0.048599 -0.034329 -9.469262 0.004642 0.045491 1.380713 -13.410206 -22.372821 -0.000879 0.002508 -40.478458 -1.397991 5.544820 19.083596 -0.000977 0.048922 -35.224026 1.296221 0.444431 21.477695 -0.000002 12.539534 -6.151392 0.054212 0.030889 0.029691 
6.421655 3.653902 83.010956 -8.783294 -2.659753 -103.638019 -0.000000 -0.009283 11.569097 -0.233912 -4.609279 1.294727 0.000001 0.016863 9.269647 -0.068888 -2.092865 0.692025 -0.000000 0.000000 8.374470 -0.068888 -2.092865 0.692023 0.000000 -0.000000 8.374495 -0.049290 -1.569729 0.518724 0.000000 0.000003 12.152572 5.407091 -17.648874 -9.904688 -0.000000 0.040101 7.802302 6.618586 3.476001 -16.428213 2.894405 0.000001 6.791376 7.323883 -0.075376 -10.513245 13.574684 -0.000000 -0.000010 63.427602 10.658912 42.158315 23.923883 0.000018 -0.000001 37.448609 -54.975868 86.702128 19.846716 0.012753 0.000009 -23.021120 18.260089 21.546723 -2.894404 -0.000000 6.791377 -7.258225 0.478655 -5.801183 -13.574684 -0.000002 0.000016 -53.235635 -3.083848 -48.614336 -23.923901 0.000008 -0.000005 -31.738127 -31.189280 -74.168259 -19.846714 0.012754 0.000004 22.313827 21.818213 -34.168100 9.469262 0.004642 0.045477 1.823231 -13.486006 -11.146642 0.000105 0.002658 -40.478497 -3.695380 3.777836 -2.500911 0.000029 0.049107 -35.224010 4.644960 1.253214 -0.529834 0.000001 12.539527 -6.151397 -0.032968 -0.063445 -0.027923 -9.469263 0.004642 0.045477 1.353924 -13.328714 -22.386508 -0.000881 0.002507 -40.478455 -1.388516 5.582334 19.091304 -0.000970 0.048927 -35.224026 1.313461 0.371543 21.272708 -0.000001 12.539534 -6.151387 0.027593 0.047390 -0.022059 
6.399773 3.680957 83.014015 -8.735225 -2.678295 -103.682579 0.000000 -0.009279 11.569116 -0.210259 -4.702300 1.326190 -0.000000 0.016863 9.269640 -0.067369 -2.128063 0.697514 -0.000000 -0.000001 8.374496 -0.067369 -2.128063 0.697515 0.000001 0.000001 8.374488 -0.048091 -1.596127 0.522842 0.000000 0.000001 12.152566 5.461644 -17.781433 -9.898507 -0.000001 0.040101 7.802313 6.732593 3.235922 -16.395729 2.894404 0.000001 6.791374 7.374163 -0.149005 -10.513760 13.574682 0.000002 -0.000002 63.456590 10.671935 42.100996 23.923904 0.000014 0.000004 36.001002 -54.982080 87.760752 19.846712 0.012775 -0.000001 -22.446838 18.081365 22.221802 -2.894404 -0.000000 6.791378 -7.292567 0.429604 -5.800524 -13.574684 -0.000001 0.000017 -53.138667 -3.055687 -48.535331 -23.923903 -0.000006 -0.000007 -31.300749 -31.256011 -74.376027 -19.846716 0.012762 0.000008 21.679036 21.345984 -35.164761 9.469263 0.004646 0.045496 1.825424 -13.435760 -11.098221 0.000105 0.002658 -40.478493 -3.701758 3.815477 -2.512849 0.000027 0.049107 -35.224018 4.677768 1.193737 -0.509687 0.000003 12.539527 -6.151387 -0.042070 -0.054061 -0.044021 -9.469263 0.004644 0.045493 1.354951 -13.277809 -22.343012 -0.000879 0.002509 -40.478447 -1.380159 5.616373 19.092141 -0.000966 0.048930 -35.224037 1.301581 0.333727 21.200822 -0.000002 12.539532 -6.151397 0.051502 0.044118 0.029757 
